<?xml version="1.0" encoding="UTF-8" standalone="no"?>
<!-- Generator: Adobe Illustrator 18.0.0, SVG Export Plug-In . SVG Version: 6.00 Build 0)  -->

<svg
   xmlns:dc="http://purl.org/dc/elements/1.1/"
   xmlns:cc="http://creativecommons.org/ns#"
   xmlns:rdf="http://www.w3.org/1999/02/22-rdf-syntax-ns#"
   xmlns:svg="http://www.w3.org/2000/svg"
   xmlns="http://www.w3.org/2000/svg"
   xmlns:sodipodi="http://sodipodi.sourceforge.net/DTD/sodipodi-0.dtd"
   xmlns:inkscape="http://www.inkscape.org/namespaces/inkscape"
   version="1.1"
   id="Layer_1"
   x="0px"
   y="0px"
   width="797.66669"
   height="267.33334"
   viewBox="0 0 239.30001 80.200003"
   enable-background="new 0 0 256 95"
   xml:space="preserve"
   sodipodi:docname="logo-reversinglabs.svg"
   inkscape:version="0.92.3 (2405546, 2018-03-11)"><metadata
   id="metadata116"><rdf:RDF><cc:Work
       rdf:about=""><dc:format>image/svg+xml</dc:format><dc:type
         rdf:resource="http://purl.org/dc/dcmitype/StillImage" /><dc:title></dc:title></cc:Work></rdf:RDF></metadata><defs
   id="defs114" /><sodipodi:namedview
   pagecolor="#ffffff"
   bordercolor="#666666"
   borderopacity="1"
   objecttolerance="10"
   gridtolerance="10"
   guidetolerance="10"
   inkscape:pageopacity="0"
   inkscape:pageshadow="2"
   inkscape:window-width="2556"
   inkscape:window-height="1376"
   id="namedview112"
   showgrid="false"
   scale-x="1"
   fit-margin-top="0"
   fit-margin-left="0"
   fit-margin-right="0"
   fit-margin-bottom="0"
   inkscape:zoom="0.48950195"
   inkscape:cx="-343.89226"
   inkscape:cy="153.03731"
   inkscape:window-x="2560"
   inkscape:window-y="30"
   inkscape:window-maximized="0"
   inkscape:current-layer="Layer_1" />
<g
   id="g109"
   transform="translate(-7.8,-7.7)">
	<polygon
   points="40.3,87.1 40.3,49.2 47.4,49.2 47.4,81.1 64.7,81.1 63.5,87.1 "
   id="polygon83"
   style="fill:#cc0000" />
	<path
   d="M 88.4,87.1 85.1,76.5 H 72.9 L 69.5,87.1 H 62.2 L 73.7,49.2 h 10.7 l 11.5,37.9 z m -7.8,-27 c -0.6,-1.9 -1,-3.9 -1.3,-6 h -0.5 c -0.4,2 -0.8,4.1 -1.3,6 l -3.2,10.5 h 9.5 z"
   id="path85"
   inkscape:connector-curvature="0"
   style="fill:#cc0000" />
	<path
   d="m 105.1,87.4 c -4.3,0 -6.2,-0.1 -11,-0.3 V 49.2 c 5,-0.2 6.8,-0.3 11.2,-0.3 10.2,0 16.4,1.8 16.4,10.3 v 0.5 c 0,3.3 -1.4,6.4 -4.8,8 3.6,1.5 5,4.7 5,8 v 0.5 c 0,9.4 -7,11.2 -16.8,11.2 m 9.7,-28 c 0,-4.3 -3.4,-4.7 -9.5,-4.7 H 101 V 65 h 6.4 c 5.9,0 7.3,-1.9 7.3,-5.1 v -0.5 z m 0.1,16.2 c 0,-3.3 -1.6,-5.4 -7.4,-5.4 H 101 v 11.4 h 1.9 c 7.8,0 11.9,-0.1 11.9,-5.4 v -0.6 z"
   id="path87"
   inkscape:connector-curvature="0"
   style="fill:#cc0000" />
	<path
   d="m 135.7,87.9 c -5,0 -10.1,-0.7 -11.9,-1.2 v -5.5 c 3.1,0.3 6.6,0.6 11.4,0.6 4.6,0 6.8,-1.3 6.8,-4.7 0,-2.4 -1,-3.8 -4.7,-5.4 l -5.7,-2.3 c -5.6,-2.3 -8.6,-5.5 -8.6,-11 0,-7.4 4.6,-10 13.6,-10 4.8,0 9.3,0.8 11.1,1.2 V 55 c -2.9,-0.3 -6.8,-0.7 -10.8,-0.7 -4.4,0 -6.8,0.8 -6.8,3.8 0,2.3 1.1,3.5 4.8,5 l 5.2,2.1 c 6.6,2.7 9.3,5.4 9.3,11.8 -0.3,7 -5.2,10.9 -13.7,10.9"
   id="path89"
   inkscape:connector-curvature="0"
   style="fill:#cc0000" />
	<path
   d="m 7.8,46.4 8.9,-15.5 c -4,-1.7 -6.5,-4.7 -6.5,-10.5 V 20 c 0,-10 7.6,-11.8 16.7,-11.8 3.8,0 7.3,0.1 10.6,0.3 v 37.9 h -6.9 v -14 H 27 c -1.2,0 -2.3,0 -3.3,-0.1 l -8.4,14 H 7.8 Z m 9.4,-26 c 0,4.9 2.9,6.3 9.4,6.3 1.3,0 2.6,0 3.9,-0.1 V 14.2 c -9.3,0 -13.4,0.1 -13.4,5.9 v 0.3 z"
   id="path91"
   inkscape:connector-curvature="0" />
	<polygon
   points="63.3,24 63.3,29.7 47.4,29.7 47.4,40.5 64.4,40.5 64.4,46.4 40.2,46.4 40.2,8.4 64.4,8.4 64.4,14.4 47.4,14.4 47.4,24 "
   id="polygon93" />
	<path
   d="M 84.1,46.4 H 73.7 L 62.2,8.4 h 7.3 l 7.8,26.3 c 0.7,2.2 1,4.8 1.5,6.8 H 79 c 0.4,-2 0.9,-4.6 1.5,-6.8 L 88.3,8.4 h 7.2 z"
   id="path95"
   inkscape:connector-curvature="0" />
	<polygon
   points="117.2,24 117.2,29.7 101.2,29.7 101.2,40.5 118.2,40.5 118.2,46.4 94.1,46.4 94.1,8.4 118.2,8.4 118.2,14.4 101.2,14.4 101.2,24 "
   id="polygon97" />
	<path
   d="m 143,46.4 -8.4,-14 c -1,0.1 -2.1,0.1 -3.3,0.1 h -3.5 v 14 h -6.9 V 8.4 c 3.4,-0.2 6.8,-0.3 10.6,-0.3 9.1,0 16.7,1.8 16.7,11.8 v 0.4 c 0,5.8 -2.5,8.8 -6.5,10.5 l 8.9,15.5 H 143 Z m -1.8,-26.3 c 0,-5.9 -4.1,-5.9 -13.4,-5.9 v 12.5 c 1.3,0.1 2.6,0.1 3.9,0.1 6.5,0 9.4,-1.4 9.4,-6.3 v -0.4 z"
   id="path99"
   inkscape:connector-curvature="0" />
	<path
   d="m 163.3,47.2 c -5,0 -10.1,-0.7 -11.9,-1.2 v -5.5 c 3.1,0.3 6.6,0.6 11.4,0.6 4.6,0 6.8,-1.3 6.8,-4.7 0,-2.4 -1,-3.8 -4.7,-5.4 l -5.7,-2.3 c -5.6,-2.3 -8.6,-5.5 -8.6,-11 0,-7.4 4.6,-10 13.6,-10 4.8,0 9.3,0.8 11.1,1.2 v 5.4 c -2.9,-0.3 -6.8,-0.7 -10.8,-0.7 -4.4,0 -6.8,0.8 -6.8,3.8 0,2.3 1.1,3.5 4.8,5 l 5.2,2.1 c 6.6,2.7 9.3,5.4 9.3,11.8 -0.2,7 -5.2,10.9 -13.7,10.9"
   id="path101"
   inkscape:connector-curvature="0" />
	<rect
   x="177.89999"
   y="8.3999996"
   width="7.0999999"
   height="37.900002"
   id="rect103" />
	<path
   d="M 209,46.4 196.9,23.9 c -0.9,-1.7 -2,-3.8 -2.9,-5.7 h -0.1 c 0.1,2.1 0.2,4.5 0.2,6.8 v 21.4 h -6.5 v -38 h 8.3 l 12.1,22 c 0.9,1.7 2.1,3.9 2.9,5.8 H 211 C 210.8,34 210.8,31.3 210.8,29 V 8.4 h 6.6 V 46.3 H 209 Z"
   id="path105"
   inkscape:connector-curvature="0" />
	<path
   d="m 234.8,47.2 c -8.7,0 -15.9,-3.4 -15.9,-17.1 v -5.4 c 0,-14.5 8.2,-17 16,-17 5.6,0 11,0.9 12.2,1.3 v 5.5 c -2.4,-0.2 -8.4,-0.5 -11,-0.5 -6.2,0 -10.2,1.4 -10.2,10.8 v 5.4 c 0,8.7 3.2,10.9 9.3,10.9 1.9,0 3.8,-0.1 5.1,-0.2 v -9.2 h -2.9 v -5.4 h 9.7 V 46 c -2,0.5 -6.8,1.2 -12.3,1.2"
   id="path107"
   inkscape:connector-curvature="0" />
</g>
</svg>